<?xml version="1.0" encoding="UTF-8" standalone="no"?>
<!DOCTYPE svg PUBLIC "-//W3C//DTD SVG 1.1//EN"
 "http://www.w3.org/Graphics/SVG/1.1/DTD/svg11.dtd">
<!-- Generated by graphviz version 2.38.0 (20140413.2041)
 -->
<!-- Title: weight Pages: 1 -->
<svg width="279pt" height="260pt"
 viewBox="0.00 0.00 279.18 260.00" xmlns="http://www.w3.org/2000/svg" xmlns:xlink="http://www.w3.org/1999/xlink">
<g id="graph0" class="graph" transform="scale(1 1) rotate(0) translate(4 256)">
<title>weight</title>
<polygon fill="white" stroke="none" points="-4,4 -4,-256 275.176,-256 275.176,4 -4,4"/>
<!-- weight -->
<g id="node1" class="node"><title>weight</title>
<ellipse fill="none" stroke="black" cx="206.176" cy="-234" rx="37.1386" ry="18"/>
<text text-anchor="middle" x="206.176" y="-229.8" font-family="Times,serif" font-size="14.00">weight</text>
</g>
<!-- mass -->
<g id="node2" class="node"><title>mass</title>
<ellipse fill="none" stroke="black" cx="169.176" cy="-162" rx="30.1938" ry="18"/>
<text text-anchor="middle" x="169.176" y="-157.8" font-family="Times,serif" font-size="14.00">mass</text>
</g>
<!-- weight&#45;&gt;mass -->
<g id="edge1" class="edge"><title>weight&#45;&gt;mass</title>
<path fill="none" stroke="black" d="M197.407,-216.411C192.984,-208.042 187.523,-197.71 182.586,-188.37"/>
<polygon fill="black" stroke="black" points="185.649,-186.675 177.882,-179.47 179.46,-189.947 185.649,-186.675"/>
</g>
<!-- g -->
<g id="node5" class="node"><title>g</title>
<ellipse fill="none" stroke="black" cx="244.176" cy="-162" rx="27" ry="18"/>
<text text-anchor="middle" x="244.176" y="-157.8" font-family="Times,serif" font-size="14.00">g</text>
</g>
<!-- weight&#45;&gt;g -->
<g id="edge4" class="edge"><title>weight&#45;&gt;g</title>
<path fill="none" stroke="black" d="M215.181,-216.411C219.725,-208.042 225.333,-197.71 230.404,-188.37"/>
<polygon fill="black" stroke="black" points="233.54,-189.928 235.235,-179.47 227.388,-186.589 233.54,-189.928"/>
</g>
<!-- volume -->
<g id="node3" class="node"><title>volume</title>
<ellipse fill="none" stroke="black" cx="121.176" cy="-90" rx="40.0089" ry="18"/>
<text text-anchor="middle" x="121.176" y="-85.8" font-family="Times,serif" font-size="14.00">volume</text>
</g>
<!-- mass&#45;&gt;volume -->
<g id="edge2" class="edge"><title>mass&#45;&gt;volume</title>
<path fill="none" stroke="black" d="M158.284,-145.116C152.354,-136.469 144.885,-125.575 138.204,-115.833"/>
<polygon fill="black" stroke="black" points="140.9,-113.575 132.358,-107.307 135.127,-117.534 140.9,-113.575"/>
</g>
<!-- density -->
<g id="node6" class="node"><title>density</title>
<ellipse fill="none" stroke="black" cx="218.176" cy="-90" rx="38.8632" ry="18"/>
<text text-anchor="middle" x="218.176" y="-85.8" font-family="Times,serif" font-size="14.00">density</text>
</g>
<!-- mass&#45;&gt;density -->
<g id="edge5" class="edge"><title>mass&#45;&gt;density</title>
<path fill="none" stroke="black" d="M180.295,-145.116C186.41,-136.38 194.129,-125.353 201.001,-115.535"/>
<polygon fill="black" stroke="black" points="203.894,-117.506 206.761,-107.307 198.159,-113.492 203.894,-117.506"/>
</g>
<!-- length -->
<g id="node4" class="node"><title>length</title>
<ellipse fill="none" stroke="black" cx="35.176" cy="-18" rx="35.3528" ry="18"/>
<text text-anchor="middle" x="35.176" y="-13.8" font-family="Times,serif" font-size="14.00">length</text>
</g>
<!-- volume&#45;&gt;length -->
<g id="edge3" class="edge"><title>volume&#45;&gt;length</title>
<path fill="none" stroke="black" d="M102.515,-73.811C90.4058,-63.9545 74.4565,-50.9725 61.1197,-40.117"/>
<polygon fill="black" stroke="black" points="63.176,-37.2779 53.2109,-33.6796 58.7571,-42.7068 63.176,-37.2779"/>
</g>
<!-- width -->
<g id="node7" class="node"><title>width</title>
<ellipse fill="none" stroke="black" cx="121.176" cy="-18" rx="33.0643" ry="18"/>
<text text-anchor="middle" x="121.176" y="-13.8" font-family="Times,serif" font-size="14.00">width</text>
</g>
<!-- volume&#45;&gt;width -->
<g id="edge6" class="edge"><title>volume&#45;&gt;width</title>
<path fill="none" stroke="black" d="M121.176,-71.6966C121.176,-63.9827 121.176,-54.7125 121.176,-46.1124"/>
<polygon fill="black" stroke="black" points="124.676,-46.1043 121.176,-36.1043 117.676,-46.1044 124.676,-46.1043"/>
</g>
<!-- height -->
<g id="node8" class="node"><title>height</title>
<ellipse fill="none" stroke="black" cx="207.176" cy="-18" rx="35.3528" ry="18"/>
<text text-anchor="middle" x="207.176" y="-13.8" font-family="Times,serif" font-size="14.00">height</text>
</g>
<!-- volume&#45;&gt;height -->
<g id="edge7" class="edge"><title>volume&#45;&gt;height</title>
<path fill="none" stroke="black" d="M139.837,-73.811C151.946,-63.9545 167.895,-50.9725 181.232,-40.117"/>
<polygon fill="black" stroke="black" points="183.595,-42.7068 189.141,-33.6796 179.176,-37.2779 183.595,-42.7068"/>
</g>
</g>
</svg>
