<?xml version="1.0" encoding="UTF-8" standalone="no"?>
<!DOCTYPE svg PUBLIC "-//W3C//DTD SVG 1.1//EN"
 "http://www.w3.org/Graphics/SVG/1.1/DTD/svg11.dtd">
<!-- Generated by graphviz version 2.38.0 (20140413.2041)
 -->
<!-- Title: weight Pages: 1 -->
<svg width="257pt" height="260pt"
 viewBox="0.00 0.00 257.00 260.00" xmlns="http://www.w3.org/2000/svg" xmlns:xlink="http://www.w3.org/1999/xlink">
<g id="graph0" class="graph" transform="scale(1 1) rotate(0) translate(4 256)">
<title>weight</title>
<polygon fill="white" stroke="none" points="-4,4 -4,-256 253,-256 253,4 -4,4"/>
<!-- volume -->
<g id="node1" class="node"><title>volume</title>
<ellipse fill="none" stroke="black" cx="99" cy="-90" rx="40.0089" ry="18"/>
<text text-anchor="middle" x="99" y="-85.8" font-family="Times,serif" font-size="14.00">volume</text>
</g>
<!-- l1 -->
<g id="node2" class="node"><title>l1</title>
<ellipse fill="none" stroke="black" cx="27" cy="-18" rx="27" ry="18"/>
<text text-anchor="middle" x="27" y="-13.8" font-family="Times,serif" font-size="14.00">l1</text>
</g>
<!-- volume&#45;&gt;l1 -->
<g id="edge1" class="edge"><title>volume&#45;&gt;l1</title>
<path fill="none" stroke="black" d="M83.0209,-73.4647C73.0571,-63.7778 60.0932,-51.174 49.1461,-40.531"/>
<polygon fill="black" stroke="black" points="51.561,-37.9972 41.9512,-33.5359 46.6814,-43.0162 51.561,-37.9972"/>
</g>
<!-- l2 -->
<g id="node3" class="node"><title>l2</title>
<ellipse fill="none" stroke="black" cx="99" cy="-18" rx="27" ry="18"/>
<text text-anchor="middle" x="99" y="-13.8" font-family="Times,serif" font-size="14.00">l2</text>
</g>
<!-- volume&#45;&gt;l2 -->
<g id="edge2" class="edge"><title>volume&#45;&gt;l2</title>
<path fill="none" stroke="black" d="M99,-71.6966C99,-63.9827 99,-54.7125 99,-46.1124"/>
<polygon fill="black" stroke="black" points="102.5,-46.1043 99,-36.1043 95.5001,-46.1044 102.5,-46.1043"/>
</g>
<!-- l3 -->
<g id="node4" class="node"><title>l3</title>
<ellipse fill="none" stroke="black" cx="171" cy="-18" rx="27" ry="18"/>
<text text-anchor="middle" x="171" y="-13.8" font-family="Times,serif" font-size="14.00">l3</text>
</g>
<!-- volume&#45;&gt;l3 -->
<g id="edge3" class="edge"><title>volume&#45;&gt;l3</title>
<path fill="none" stroke="black" d="M114.979,-73.4647C124.943,-63.7778 137.907,-51.174 148.854,-40.531"/>
<polygon fill="black" stroke="black" points="151.319,-43.0162 156.049,-33.5359 146.439,-37.9972 151.319,-43.0162"/>
</g>
<!-- mass -->
<g id="node5" class="node"><title>mass</title>
<ellipse fill="none" stroke="black" cx="147" cy="-162" rx="30.1938" ry="18"/>
<text text-anchor="middle" x="147" y="-157.8" font-family="Times,serif" font-size="14.00">mass</text>
</g>
<!-- mass&#45;&gt;volume -->
<g id="edge4" class="edge"><title>mass&#45;&gt;volume</title>
<path fill="none" stroke="black" d="M136.108,-145.116C130.178,-136.469 122.709,-125.575 116.028,-115.833"/>
<polygon fill="black" stroke="black" points="118.724,-113.575 110.182,-107.307 112.951,-117.534 118.724,-113.575"/>
</g>
<!-- density -->
<g id="node6" class="node"><title>density</title>
<ellipse fill="none" stroke="black" cx="196" cy="-90" rx="38.8632" ry="18"/>
<text text-anchor="middle" x="196" y="-85.8" font-family="Times,serif" font-size="14.00">density</text>
</g>
<!-- mass&#45;&gt;density -->
<g id="edge5" class="edge"><title>mass&#45;&gt;density</title>
<path fill="none" stroke="black" d="M158.119,-145.116C164.234,-136.38 171.953,-125.353 178.825,-115.535"/>
<polygon fill="black" stroke="black" points="181.718,-117.506 184.585,-107.307 175.983,-113.492 181.718,-117.506"/>
</g>
<!-- weight -->
<g id="node7" class="node"><title>weight</title>
<ellipse fill="none" stroke="black" cx="184" cy="-234" rx="37.1386" ry="18"/>
<text text-anchor="middle" x="184" y="-229.8" font-family="Times,serif" font-size="14.00">weight</text>
</g>
<!-- weight&#45;&gt;mass -->
<g id="edge6" class="edge"><title>weight&#45;&gt;mass</title>
<path fill="none" stroke="black" d="M175.232,-216.411C170.808,-208.042 165.347,-197.71 160.41,-188.37"/>
<polygon fill="black" stroke="black" points="163.473,-186.675 155.706,-179.47 157.284,-189.947 163.473,-186.675"/>
</g>
<!-- g -->
<g id="node8" class="node"><title>g</title>
<ellipse fill="none" stroke="black" cx="222" cy="-162" rx="27" ry="18"/>
<text text-anchor="middle" x="222" y="-157.8" font-family="Times,serif" font-size="14.00">g</text>
</g>
<!-- weight&#45;&gt;g -->
<g id="edge7" class="edge"><title>weight&#45;&gt;g</title>
<path fill="none" stroke="black" d="M193.005,-216.411C197.549,-208.042 203.158,-197.71 208.228,-188.37"/>
<polygon fill="black" stroke="black" points="211.364,-189.928 213.059,-179.47 205.212,-186.589 211.364,-189.928"/>
</g>
</g>
</svg>
